<svg aria-hidden="true" style="width:0;height:0;position:absolute;overflow:hidden" xmlns="http://www.w3.org/2000/svg"><defs><symbol id="icon-film" viewBox="0 0 32 32"><path fill="none" stroke="#fff" style="stroke:var(--color1,#fff)" stroke-linejoin="round" stroke-linecap="round" stroke-width="2.17" d="M26.427 2.667H5.574a2.907 2.907 0 0 0-2.907 2.907v20.853a2.907 2.907 0 0 0 2.907 2.907h20.853a2.907 2.907 0 0 0 2.907-2.907V5.574a2.907 2.907 0 0 0-2.907-2.907zM9.333 2.667v26.667M22.667 2.667v26.667M2.667 16h26.667M2.667 9.333h6.667M2.667 22.667h6.667M22.667 22.667h6.667M22.667 9.333h6.667"/></symbol><symbol id="icon-camera" viewBox="0 0 29 32"><path d="M3.844 12.471a2.49 2.49 0 0 0-2.484 2.482v9.266a2.493 2.493 0 0 0 2.484 2.476h3.32L3.878 32h3.125l3.646-4.846 3.604 4.854h3.081l-3.307-5.305h4.553a2.495 2.495 0 0 0 2.484-2.484v-9.266a2.489 2.489 0 0 0-2.484-2.481H3.846zm.062-9.895a3.906 3.906 0 1 0 0 7.811 3.906 3.906 0 0 0 0-7.811zM1.372 6.492a.794.794 0 1 1 .794.799h-.013a.781.781 0 0 1-.781-.781v-.014.001zm2.555 2.516h-.016a.797.797 0 1 1 .797-.797v.003a.794.794 0 0 1-.781.794h-.001zm2.516-2.557v.002a.797.797 0 1 1-.797-.797h.016-.001c.432.009.78.361.781.794zM3.885 3.935h.003a.797.797 0 1 1-.797.797c0-.439.355-.795.794-.797zM15.901 0h-.003a5.177 5.177 0 0 0-5.177 5.177v.003A5.18 5.18 0 1 0 15.901 0zm-.031 1.51a1.156 1.156 0 1 1-1.156 1.156c0-.639.518-1.156 1.156-1.156zm-3.662 3.719v-.003a1.16 1.16 0 1 1 1.159 1.159h-.003a1.156 1.156 0 0 1-1.156-1.156zm3.722 3.662a1.156 1.156 0 1 1 1.156-1.156c0 .639-.518 1.156-1.156 1.156zm3.646-3.719a1.157 1.157 0 1 1-1.156-1.158c.639 0 1.156.518 1.156 1.156v.003zm2.898 18.526v-7.974l6.734-3.969v16.018l-6.734-4.076z"/></symbol></defs></svg>